<svg width="1648" height="371" viewBox="0 0 1648 371" fill="none" xmlns="http://www.w3.org/2000/svg">
<path fill-rule="evenodd" clip-rule="evenodd" d="M240.036 369.213L202.44 322.94L185.088 152.312L95.4361 113.752C95.4361 113.752 74.6422 105.189 62.6601 97.3641C52.1253 90.4847 46.244 86.2591 37.5961 77.1201C28.6925 67.711 24.7712 61.3591 18.316 50.1281C11.9349 39.0259 4.82001 20.244 4.82001 20.244L0 0C0 0 65.8707 31.618 109.896 47.2361C159.561 64.8546 240.036 82.9041 240.036 82.9041V369.213ZM254.496 370.177L292.092 323.905L309.444 153.276L399.097 114.716C399.097 114.716 419.891 106.153 431.873 98.3284C442.407 91.449 448.289 87.2233 456.937 78.0843C465.84 68.6753 469.762 62.3233 476.217 51.0923C482.598 39.9901 485.835 33.4125 489.713 21.2083C492.173 13.463 494.533 0.964233 494.533 0.964233C494.533 0.964233 428.662 32.5822 384.637 48.2003C334.972 65.8189 254.496 83.8683 254.496 83.8683V370.177Z" fill="#F1471D"/>
<path d="M1647.02 114.265V163.378H1621.51V113.308C1621.51 98.9564 1617.36 90.0266 1607.47 90.0266C1597.91 90.0266 1593.76 98.9564 1593.76 113.308V139.459C1593.76 155.087 1598.54 160.827 1608.75 171.033L1628.2 190.806C1643.19 205.795 1647.66 215.363 1647.66 237.368V265.114C1647.66 293.498 1632.35 310.082 1606.84 310.082C1581 310.082 1567.29 293.498 1567.29 265.114V214.087H1592.48V265.752C1592.48 280.104 1596.95 289.033 1606.84 289.033C1616.72 289.033 1620.87 280.104 1620.87 265.752V237.368C1620.87 222.698 1618.32 218.233 1606.52 207.071L1587.06 187.935C1574.31 175.179 1566.97 164.335 1566.97 142.33V114.265C1566.97 85.5617 1582.28 68.9778 1607.47 68.9778C1633.31 68.9778 1647.02 85.5617 1647.02 114.265Z" fill="#F1471D"/>
<path d="M1391.38 71.5298H1418.49V265.434C1418.49 280.104 1422.64 289.034 1432.52 289.034C1442.73 289.034 1446.56 280.104 1446.56 265.434V71.5298H1473.66V265.115C1473.66 293.18 1459.31 310.083 1432.52 310.083C1406.05 310.083 1391.38 293.18 1391.38 265.115V71.5298Z" fill="#F1471D"/>
<path d="M1267.5 279.148V220.785C1267.5 206.752 1263.99 198.46 1253.78 198.46H1239.75V307.532H1212.32V71.5298H1253.78C1280.25 71.5298 1294.92 87.1569 1294.92 115.541V154.449C1294.92 170.076 1291.1 181.239 1276.43 187.936C1291.1 194.633 1294.92 205.796 1294.92 221.742V279.148C1294.92 289.672 1296.52 298.921 1300.34 307.532H1272.6C1268.45 299.877 1267.5 289.353 1267.5 279.148ZM1267.5 155.087V114.903C1267.5 100.871 1263.99 92.2597 1253.78 92.2597H1239.75V177.412H1253.78C1263.99 177.412 1267.5 169.12 1267.5 155.087Z" fill="#F1471D"/>
<path d="M1032.91 71.5298H1060.02V265.434C1060.02 280.104 1064.16 289.034 1074.05 289.034C1084.25 289.034 1088.08 280.104 1088.08 265.434V71.5298H1115.19V265.115C1115.19 293.18 1100.84 310.083 1074.05 310.083C1047.58 310.083 1032.91 293.18 1032.91 265.115V71.5298Z" fill="#F1471D"/>
<path d="M883.669 71.5298H914.604L944.583 307.532H918.431L911.734 246.618H884.626L877.928 307.532H853.69L883.669 71.5298ZM894.512 154.768L887.177 223.336H909.183L901.529 154.768L898.339 121.282H897.702L894.512 154.768Z" fill="#F1471D"/>
<path d="M779.626 94.4921H752.837V307.532H725.409V94.4921H698.62V71.5298H779.626V94.4921Z" fill="#F1471D"/>
</svg>
